<svg xmlns="http://www.w3.org/2000/svg" viewBox="0 -880 1000 1000">
    <g transform="scale(1, -1)">
        <!-- body -->
        <rect x="0" y="-120" width="1000" height="1000"
            stroke="white" fill="white"/>
        <!-- Origin of glyph coordinate -->
        <circle cx="0" cy="0" r="5" fill="white"/>
        <!-- Outline of glyph -->
        <g style="fill:white;stroke:#000000;stroke-width:1;stroke-linecap:round;stroke-linejoin:round;">
        <path d="M114.0 157.0C114.0 76.0 161.0 33.0 233.0 33.0C279.0 33.0 330.0 47.0 377.0 81.0C380.0 68.0 383.0 55.0 386.0 43.0C392.0 22.0 405.0 12.0 419.0 12.0C436.0 12.0 454.0 28.0 454.0 54.0C454.0 58.0 453.0 63.0 452.0 68.0C448.0 84.0 445.0 101.0 441.0 118.0C531.0 200.0 592.0 307.0 633.0 420.0C743.0 403.0 807.0 325.0 807.0 234.0C807.0 138.0 741.0 64.0 617.0 34.0C593.0 28.0 582.0 12.0 582.0 -4.0C582.0 -23.0 597.0 -42.0 622.0 -42.0C626.0 -42.0 631.0 -41.0 636.0 -40.0C787.0 -4.0 885.0 102.0 885.0 235.0C885.0 359.0 788.0 456.0 651.0 478.0C655.0 490.0 658.0 502.0 661.0 514.0C662.0 518.0 663.0 522.0 663.0 526.0C663.0 549.0 644.0 562.0 626.0 562.0C611.0 562.0 596.0 553.0 591.0 533.0C587.0 516.0 582.0 499.0 578.0 483.0C524.0 482.0 470.0 475.0 419.0 460.0C422.0 509.0 425.0 558.0 430.0 607.0C512.0 613.0 596.0 623.0 666.0 634.0C688.0 638.0 698.0 653.0 698.0 669.0C698.0 688.0 682.0 707.0 655.0 703.0C589.0 692.0 513.0 683.0 438.0 677.0C443.0 713.0 448.0 751.0 454.0 791.0C458.0 817.0 438.0 832.0 418.0 832.0C401.0 832.0 385.0 822.0 382.0 800.0C376.0 756.0 370.0 713.0 366.0 672.0C314.0 669.0 264.0 667.0 223.0 667.0C198.0 667.0 187.0 649.0 187.0 632.0C187.0 614.0 198.0 597.0 220.0 597.0C261.0 597.0 308.0 599.0 359.0 602.0C354.0 546.0 351.0 491.0 349.0 435.0C179.0 359.0 114.0 241.0 114.0 157.0ZM188.0 162.0C188.0 218.0 227.0 302.0 348.0 367.0C348.0 303.0 353.0 226.0 364.0 153.0C317.0 118.0 275.0 103.0 237.0 103.0C202.0 104.0 189.0 131.0 188.0 162.0ZM429.0 200.0C421.0 260.0 417.0 322.0 417.0 373.0C417.0 381.0 417.0 389.0 417.0 396.0C463.0 411.0 510.0 421.0 558.0 423.0C529.0 342.0 488.0 264.0 429.0 200.0Z"/>
    </g>
    </g>
</svg>
